<?xml version="1.0" encoding="utf-8"?>
<!-- Generator: Adobe Illustrator 16.0.0, SVG Export Plug-In . SVG Version: 6.00 Build 0)  -->
<!DOCTYPE svg PUBLIC "-//W3C//DTD SVG 1.1//EN" "http://www.w3.org/Graphics/SVG/1.1/DTD/svg11.dtd">
<svg version="1.1" id="Artwork" xmlns="http://www.w3.org/2000/svg" xmlns:xlink="http://www.w3.org/1999/xlink" x="0px" y="0px"
	 width="94px" height="36px" viewBox="-14.958 13.992 94 36" enable-background="new -14.958 13.992 94 36" xml:space="preserve">
<path fill="#FFFFFF" d="M4.186,19.162c0-0.691-0.559-1.25-1.283-1.25c-0.69,0-1.25,0.559-1.25,1.25c0,0.69,0.559,1.282,1.25,1.282
	C3.626,20.411,4.186,19.852,4.186,19.162z"/>
<path fill="#FFFFFF" d="M1.16,45.266c0.132,0.789,0.888,1.316,1.677,1.151c0.79-0.132,1.316-0.888,1.151-1.676
	c-0.131-0.791-0.887-1.316-1.677-1.151C1.555,43.72,1.029,44.478,1.16,45.266z"/>
<path fill="#FFFFFF" d="M18.98,46.681c0-0.593-0.493-1.085-1.118-1.085c-0.592,0-1.085,0.492-1.085,1.085
	c0,0.624,0.493,1.118,1.085,1.118C18.52,47.766,18.98,47.273,18.98,46.681z"/>
<circle fill="#FFFFFF" cx="13.259" cy="41.157" r="0.92"/>
<path fill="#FFFFFF" d="M17.303,39.644c0.165-0.559-0.164-1.116-0.723-1.281s-1.118,0.165-1.283,0.723
	c-0.165,0.559,0.165,1.118,0.724,1.283C16.581,40.499,17.14,40.203,17.303,39.644z"/>
<path fill="#FFFFFF" d="M14.509,40.434c0-0.297-0.23-0.494-0.526-0.494c-0.296,0-0.526,0.23-0.526,0.494
	c0,0.296,0.229,0.526,0.526,0.526C14.279,40.928,14.509,40.697,14.509,40.434z"/>
<path fill="#FFFFFF" d="M18.454,41.519c0-0.888-0.723-1.645-1.644-1.645c-0.887,0-1.611,0.725-1.611,1.645
	c0,0.888,0.724,1.644,1.611,1.644C17.731,43.162,18.454,42.439,18.454,41.519z"/>
<path fill="#FFFFFF" d="M12.504,47.24c0-0.79-0.658-1.449-1.447-1.449c-0.789,0-1.447,0.659-1.447,1.449
	c0,0.787,0.658,1.445,1.447,1.445C11.846,48.686,12.504,48.027,12.504,47.24z"/>
<path fill="#FFFFFF" d="M9.183,43.491c0-0.525-0.427-0.953-0.953-0.953c-0.526,0-0.954,0.428-0.954,0.953s0.427,0.953,0.954,0.953
	C8.755,44.444,9.183,44.017,9.183,43.491z"/>
<circle fill="#FFFFFF" cx="9.084" cy="45.102" r="1.118"/>
<path fill="#FFFFFF" d="M11.879,45.923c0-0.525-0.427-0.984-0.986-0.984c-0.526,0-0.986,0.427-0.986,0.984
	c0,0.527,0.427,0.988,0.986,0.988S11.879,46.482,11.879,45.923z"/>
<path fill="#FFFFFF" d="M6.684,40.763c0-0.494-0.394-0.922-0.888-0.922c-0.493,0-0.92,0.396-0.92,0.922
	c0,0.492,0.395,0.919,0.92,0.919C6.257,41.682,6.684,41.255,6.684,40.763z"/>
<path fill="#FFFFFF" d="M7.045,41.519c0-0.624-0.493-1.118-1.118-1.118c-0.625,0-1.118,0.494-1.118,1.118s0.493,1.118,1.118,1.118
	C6.552,42.637,7.045,42.143,7.045,41.519z"/>
<path fill="#FFFFFF" d="M4.251,43.983c0-0.492-0.395-0.886-0.921-0.886c-0.493,0-0.92,0.394-0.92,0.886
	c0,0.494,0.395,0.922,0.92,0.922C3.856,44.905,4.251,44.478,4.251,43.983z"/>
<path fill="#FFFFFF" d="M6.487,43.59c0-0.821-0.658-1.48-1.479-1.48c-0.822,0-1.479,0.659-1.479,1.48s0.658,1.48,1.479,1.48
	C5.829,45.104,6.487,44.411,6.487,43.59z"/>
<path fill="#FFFFFF" d="M-0.779,40.038c0-0.296-0.23-0.493-0.493-0.493c-0.295,0-0.526,0.23-0.526,0.493
	c0,0.297,0.231,0.494,0.526,0.494C-1.009,40.532-0.779,40.335-0.779,40.038z"/>
<path fill="#FFFFFF" d="M0.404,42.044c0-0.986-0.79-1.775-1.776-1.775c-0.986,0-1.775,0.789-1.775,1.775
	c0,0.988,0.789,1.774,1.775,1.774C-0.385,43.852,0.404,43.032,0.404,42.044z"/>
<path fill="#FFFFFF" d="M-0.45,36.061c-0.756,0-1.349-0.593-1.349-1.347c0-0.725,0.625-1.351,1.349-1.317
	c0.756,0,1.348,0.593,1.348,1.35C0.897,35.468,0.306,36.061-0.45,36.061z"/>
<path fill="#FFFFFF" d="M0.832,35.665c-0.821,0-1.479-0.689-1.479-1.512c0-0.823,0.691-1.479,1.513-1.479
	c0.821,0,1.479,0.688,1.479,1.512C2.311,35.009,1.653,35.665,0.832,35.665z"/>
<path fill="#FFFFFF" d="M12.042,15.676c0,0.921-0.755,1.677-1.676,1.677c-0.921,0-1.677-0.756-1.677-1.677
	c0-0.92,0.756-1.676,1.677-1.676C11.287,14,12.042,14.755,12.042,15.676z"/>
<path fill="#FFFFFF" d="M9.939,20.148c0,0.526-0.428,0.953-0.954,0.953c-0.526,0-0.954-0.427-0.954-0.953
	c0-0.526,0.427-0.954,0.954-0.954C9.511,19.194,9.939,19.622,9.939,20.148z"/>
<path fill="#FFFFFF" d="M14.377,23.534c0,0.296-0.23,0.526-0.526,0.526c-0.296,0-0.526-0.23-0.526-0.526
	c0-0.295,0.23-0.526,0.526-0.526C14.147,23.008,14.377,23.238,14.377,23.534z"/>
<path fill="#FFFFFF" d="M10.433,22.351c0-0.428-0.33-0.756-0.757-0.756s-0.756,0.329-0.756,0.756s0.329,0.756,0.756,0.756
	C10.07,23.106,10.433,22.778,10.433,22.351z"/>
<path fill="#FFFFFF" d="M18.29,22.12c0,0.888-0.723,1.644-1.643,1.644c-0.889,0-1.611-0.724-1.611-1.644
	c0-0.887,0.723-1.611,1.611-1.611C17.567,20.509,18.29,21.233,18.29,22.12z"/>
<circle fill="#FFFFFF" cx="15.923" cy="19.983" r="1.118"/>
<path fill="#FFFFFF" d="M18.815,16.991c0,0.625-0.493,1.085-1.084,1.085c-0.592,0-1.085-0.493-1.085-1.085
	c0-0.592,0.493-1.085,1.085-1.085C18.322,15.906,18.815,16.399,18.815,16.991z"/>
<path fill="#FFFFFF" d="M22.63,22.055c0,0.625-0.493,1.118-1.118,1.118s-1.118-0.493-1.118-1.118c0-0.625,0.493-1.118,1.118-1.118
	S22.63,21.462,22.63,22.055z"/>
<path fill="#FFFFFF" d="M23.913,20.969c0,0.79-0.658,1.447-1.447,1.447s-1.447-0.657-1.447-1.447c0-0.789,0.658-1.446,1.447-1.446
	S23.913,20.181,23.913,20.969z"/>
<path fill="#FFFFFF" d="M15.758,17.254c0,0.889-0.723,1.611-1.611,1.611c-0.888,0-1.61-0.723-1.61-1.611
	c0-0.887,0.723-1.61,1.61-1.61C15.035,15.644,15.758,16.367,15.758,17.254z"/>
<path fill="#FFFFFF" stroke="#FFFFFF" stroke-width="0.5" stroke-miterlimit="10" d="M58.532,18.865c0-0.23,0.099-0.329,0.329-0.329
	h3.485c0.229,0,0.328,0.099,0.328,0.329v0.198c0,0.197-0.1,0.328-0.328,0.328H59.52v2.236h2.236c0.195,0,0.327,0.099,0.327,0.329
	v0.198c0,0.229-0.132,0.329-0.327,0.329H59.52v2.302h2.99c0.23,0,0.329,0.099,0.329,0.328v0.198c0,0.229-0.099,0.329-0.329,0.329
	h-3.648c-0.23,0-0.329-0.099-0.329-0.329V18.865z M34.071,18.405c1.217,0,2.006,0.46,2.368,0.724
	c0.164,0.132,0.164,0.296,0.065,0.46l-0.132,0.198c-0.132,0.196-0.264,0.196-0.461,0.065c-0.297-0.197-0.92-0.559-1.775-0.559
	c-1.644,0-2.63,1.217-2.63,2.729s0.986,2.828,2.63,2.828c0.954,0,1.61-0.46,1.94-0.691c0.164-0.132,0.329-0.132,0.461,0.033
	l0.164,0.198c0.132,0.164,0.099,0.329-0.065,0.46c-0.362,0.295-1.219,0.92-2.532,0.92c-2.203,0-3.65-1.644-3.65-3.715
	C30.455,19.983,31.934,18.405,34.071,18.405z M39.726,18.799c0.065-0.197,0.197-0.263,0.362-0.263h0.494
	c0.197,0,0.329,0.066,0.361,0.263l2.334,6.478c0.065,0.229-0.033,0.394-0.263,0.394h-0.329c-0.197,0-0.329-0.099-0.362-0.263
	l-0.625-1.775h-2.695l-0.624,1.775c-0.066,0.197-0.165,0.263-0.362,0.263h-0.329c-0.263,0-0.361-0.165-0.263-0.394L39.726,18.799z
	 M41.403,22.778l-0.789-2.269c-0.132-0.361-0.264-1.019-0.264-1.019h-0.032c0,0-0.165,0.658-0.297,1.019l-0.788,2.269H41.403z
	 M44.23,18.865c0-0.23,0.099-0.329,0.329-0.329h0.396c0.197,0,0.294,0.066,0.394,0.23l3.024,4.405
	c0.264,0.395,0.593,1.019,0.593,1.019h0.032c0,0-0.065-0.625-0.065-1.019v-4.307c0-0.23,0.132-0.329,0.329-0.329h0.328
	c0.23,0,0.327,0.099,0.327,0.329v6.444c0,0.229-0.097,0.329-0.327,0.329h-0.394c-0.198,0-0.297-0.066-0.396-0.23l-3.026-4.373
	c-0.262-0.394-0.589-1.052-0.589-1.052h-0.033c0,0,0.064,0.625,0.064,1.052v4.274c0,0.229-0.098,0.329-0.328,0.329H44.56
	c-0.23,0-0.329-0.099-0.329-0.329V18.865L44.23,18.865z M54.751,18.405c1.217,0,2.006,0.46,2.368,0.724
	c0.165,0.132,0.165,0.296,0.065,0.46l-0.132,0.198c-0.131,0.196-0.263,0.196-0.461,0.065c-0.296-0.197-0.92-0.559-1.774-0.559
	c-1.644,0-2.631,1.217-2.631,2.729s0.987,2.828,2.631,2.828c0.92,0,1.61-0.46,1.939-0.691c0.165-0.132,0.329-0.132,0.461,0.033
	l0.165,0.198c0.132,0.164,0.099,0.329-0.066,0.46c-0.362,0.295-1.217,0.92-2.532,0.92c-2.203,0-3.648-1.644-3.648-3.715
	C51.136,19.983,52.614,18.405,54.751,18.405z M63.893,18.865c0-0.23,0.098-0.329,0.328-0.329h1.906c0.69,0,1.053,0.066,1.315,0.198
	c0.69,0.295,1.118,0.953,1.118,1.874s-0.494,1.71-1.282,1.973v0.033c0,0,0.099,0.099,0.197,0.329l1.281,2.368
	c0.132,0.229,0.032,0.395-0.229,0.395h-0.395c-0.196,0-0.328-0.066-0.394-0.23l-1.382-2.597h-1.513v2.499
	c0,0.229-0.099,0.329-0.329,0.329h-0.328c-0.23,0-0.327-0.099-0.327-0.329v-6.51H63.893z M66.292,21.956
	c0.788,0,1.282-0.526,1.282-1.314c0-0.526-0.23-0.92-0.658-1.118c-0.198-0.066-0.396-0.132-0.854-0.132h-1.185v2.564H66.292z
	 M30.882,28.696c0-0.23,0.099-0.329,0.33-0.329h1.907c0.689,0,1.052,0.066,1.315,0.198c0.689,0.295,1.116,0.953,1.116,1.874
	s-0.492,1.677-1.281,1.939v0.033c0,0,0.099,0.099,0.198,0.329l1.28,2.367c0.132,0.23,0.033,0.394-0.23,0.394h-0.394
	c-0.197,0-0.327-0.066-0.394-0.229l-1.383-2.597h-1.511v2.498c0,0.229-0.099,0.328-0.329,0.328h-0.329
	c-0.23,0-0.329-0.1-0.329-0.328v-6.477H30.882z M33.313,31.786c0.791,0,1.285-0.526,1.285-1.315c0-0.526-0.231-0.92-0.659-1.118
	c-0.197-0.066-0.396-0.132-0.854-0.132h-1.184v2.564H33.313z M37.063,28.696c0-0.23,0.099-0.329,0.329-0.329h3.452
	c0.229,0,0.328,0.099,0.328,0.329v0.197c0,0.198-0.099,0.329-0.328,0.329h-2.828v2.236h2.235c0.198,0,0.33,0.099,0.33,0.329v0.198
	c0,0.23-0.132,0.328-0.33,0.328h-2.235v2.303h2.993c0.229,0,0.327,0.099,0.327,0.327v0.197c0,0.23-0.099,0.328-0.327,0.328h-3.65
	c-0.23,0-0.329-0.098-0.329-0.328v-6.444H37.063z M42.258,34.385l0.165-0.231c0.131-0.164,0.263-0.197,0.461-0.065
	c0.262,0.197,0.788,0.593,1.544,0.593c0.758,0,1.25-0.396,1.25-1.021c0-1.578-3.42-1.216-3.42-3.452c0-1.183,1.02-1.973,2.302-1.973
	c0.854,0,1.512,0.33,1.774,0.559c0.165,0.132,0.198,0.264,0.1,0.46l-0.132,0.264c-0.132,0.197-0.297,0.197-0.461,0.099
	c-0.262-0.165-0.722-0.428-1.314-0.428c-0.725,0-1.282,0.395-1.282,0.987c0,1.544,3.42,1.117,3.42,3.418
	c0,1.12-0.823,2.039-2.27,2.039c-1.019,0-1.808-0.46-2.137-0.724C42.191,34.746,42.126,34.582,42.258,34.385z M47.978,28.696
	c0-0.23,0.099-0.329,0.329-0.329h3.486c0.229,0,0.327,0.099,0.327,0.329v0.197c0,0.198-0.099,0.329-0.327,0.329h-2.827v2.236h2.235
	c0.198,0,0.328,0.099,0.328,0.329v0.198c0,0.23-0.13,0.328-0.328,0.328h-2.235v2.303h2.991c0.229,0,0.328,0.099,0.328,0.327v0.197
	c0,0.23-0.099,0.328-0.328,0.328h-3.65c-0.23,0-0.329-0.098-0.329-0.328V28.696z M55.344,28.63c0.066-0.197,0.165-0.263,0.361-0.263
	h0.492c0.164,0,0.329,0.066,0.362,0.263l2.334,6.478c0.066,0.23-0.032,0.394-0.263,0.394h-0.33c-0.195,0-0.327-0.1-0.36-0.262
	l-0.624-1.777H54.62l-0.624,1.777c-0.066,0.162-0.198,0.262-0.362,0.262h-0.328c-0.264,0-0.362-0.163-0.264-0.394L55.344,28.63z
	 M57.021,32.608l-0.791-2.269c-0.13-0.362-0.262-1.02-0.262-1.02h-0.032c0,0-0.165,0.658-0.297,1.02l-0.788,2.269H57.021z
	 M59.88,28.696c0-0.23,0.1-0.329,0.33-0.329h1.906c0.689,0,1.052,0.066,1.349,0.198c0.689,0.295,1.116,0.953,1.116,1.874
	s-0.492,1.677-1.281,1.939v0.033c0,0,0.099,0.099,0.198,0.329l1.28,2.367c0.132,0.23,0.033,0.394-0.23,0.394h-0.394
	c-0.197,0-0.294-0.066-0.394-0.229l-1.383-2.597h-1.512v2.498c0,0.229-0.099,0.328-0.329,0.328H60.21c-0.23,0-0.33-0.1-0.33-0.328
	V28.696L59.88,28.696z M62.281,31.786c0.788,0,1.282-0.526,1.282-1.315c0-0.526-0.23-0.92-0.658-1.118
	c-0.198-0.066-0.396-0.132-0.854-0.132h-1.185v2.564H62.281z M69.151,28.235c1.217,0,2.006,0.46,2.368,0.724
	c0.164,0.132,0.164,0.295,0.065,0.46l-0.132,0.197c-0.131,0.197-0.263,0.197-0.461,0.065c-0.296-0.197-0.918-0.559-1.774-0.559
	c-1.644,0-2.631,1.216-2.631,2.729c0,1.511,0.987,2.829,2.631,2.829c0.953,0,1.61-0.461,1.939-0.691
	c0.165-0.132,0.329-0.132,0.461,0.033l0.165,0.197c0.132,0.165,0.099,0.329-0.066,0.461C71.354,34.976,70.5,35.6,69.185,35.6
	c-2.203,0-3.648-1.644-3.648-3.715S67.015,28.235,69.151,28.235z M72.932,28.696c0-0.23,0.1-0.329,0.33-0.329h0.329
	c0.23,0,0.329,0.099,0.329,0.329v2.795h3.715v-2.795c0-0.23,0.132-0.329,0.329-0.329h0.329c0.196,0,0.328,0.099,0.328,0.329v6.444
	c0,0.23-0.099,0.328-0.328,0.328h-0.329c-0.197,0-0.329-0.098-0.329-0.328v-2.794H73.92v2.794c0,0.23-0.099,0.328-0.329,0.328
	h-0.329c-0.23,0-0.33-0.098-0.33-0.328V28.696z M30.882,38.329c0-0.164,0.099-0.264,0.264-0.264h0.197
	c0.165,0,0.263,0.1,0.263,0.264v4.341c0,1.215,0.789,1.939,2.005,1.939c1.219,0,2.005-0.725,2.005-1.973v-4.308
	c0-0.164,0.1-0.264,0.264-0.264h0.198c0.164,0,0.23,0.1,0.23,0.264v4.373c0,1.578-1.085,2.597-2.697,2.597
	c-1.61,0-2.729-1.019-2.729-2.597V38.329z M38.017,38.329c0-0.164,0.065-0.264,0.23-0.264h0.197c0.165,0,0.23,0.1,0.23,0.264v2.827
	h1.215l1.809-2.893c0.065-0.132,0.164-0.165,0.296-0.165h0.264c0.197,0,0.264,0.132,0.165,0.297l-1.94,3.058v0.032l2.071,3.42
	c0.1,0.165,0.033,0.295-0.164,0.295h-0.297c-0.132,0-0.23-0.064-0.296-0.163l-1.939-3.224h-1.216v3.125
	c0,0.165-0.099,0.262-0.23,0.262h-0.197c-0.165,0-0.23-0.097-0.23-0.262v-6.609H38.017z"/>
<path fill="#FFFFFF" d="M12.767,21.396c0,0.954-0.756,1.71-1.71,1.71c-0.954,0-1.709-0.756-1.709-1.71
	c0-0.953,0.756-1.709,1.709-1.709C12.011,19.688,12.767,20.476,12.767,21.396z"/>
<path fill="#FFFFFF" d="M2.936,27.052c0,1.282-1.052,2.334-2.334,2.334c-1.283,0-2.335-1.052-2.335-2.334
	c0-1.282,1.052-2.334,2.335-2.334C1.884,24.718,2.936,25.77,2.936,27.052z"/>
<path fill="#FFFFFF" d="M8.492,15.578c0,0.789-0.657,1.446-1.447,1.446c-0.789,0-1.446-0.658-1.446-1.446
	c0-0.79,0.658-1.447,1.446-1.447C7.835,14.131,8.492,14.789,8.492,15.578z"/>
<circle fill="#FFFFFF" cx="-4.035" cy="20.542" r="0.854"/>
<path fill="#FFFFFF" d="M6.454,23.172c0,0.658-0.526,1.184-1.183,1.184c-0.658,0-1.184-0.526-1.184-1.184s0.526-1.184,1.184-1.184
	C5.928,21.989,6.454,22.515,6.454,23.172z"/>
<path fill="#FFFFFF" d="M-1.47,27.216c0,0.625-0.493,1.118-1.117,1.118c-0.625,0-1.118-0.493-1.118-1.118s0.493-1.118,1.118-1.118
	C-1.963,26.065-1.47,26.559-1.47,27.216z"/>
<path fill="#FFFFFF" d="M6.29,21.266c0,0.46-0.396,0.854-0.855,0.854c-0.46,0-0.854-0.394-0.854-0.854
	c0-0.46,0.394-0.855,0.854-0.855C5.928,20.411,6.29,20.772,6.29,21.266z"/>
<path fill="#FFFFFF" d="M15.101,21.364c0,0.494-0.395,0.921-0.921,0.921c-0.493,0-0.92-0.396-0.92-0.921
	c0-0.493,0.395-0.888,0.92-0.888C14.673,20.476,15.101,20.871,15.101,21.364z"/>
<path fill="#FFFFFF" d="M5.007,24.291c0,0.493-0.395,0.887-0.888,0.887s-0.888-0.394-0.888-0.887s0.395-0.92,0.888-0.92
	S5.007,23.764,5.007,24.291z"/>
<path fill="#FFFFFF" d="M16.449,16.663c0,0.46-0.361,0.821-0.822,0.821c-0.461,0-0.822-0.361-0.822-0.821
	c0-0.461,0.361-0.823,0.822-0.823C16.087,15.874,16.449,16.235,16.449,16.663z"/>
<path fill="#FFFFFF" d="M14.772,18.997c0,0.46-0.362,0.821-0.822,0.821s-0.822-0.361-0.822-0.821c0-0.46,0.362-0.822,0.822-0.822
	S14.772,18.537,14.772,18.997z"/>
<path fill="#FFFFFF" d="M17.041,18.339c0,0.428-0.361,0.789-0.79,0.789c-0.427,0-0.789-0.361-0.789-0.789s0.361-0.789,0.789-0.789
	C16.711,17.55,17.041,17.912,17.041,18.339z"/>
<path fill="#FFFFFF" d="M14.147,22.515c0,0.493-0.427,0.92-0.92,0.92s-0.92-0.427-0.92-0.92s0.395-0.92,0.92-0.92
	C13.72,21.594,14.147,21.989,14.147,22.515z"/>
<path fill="#FFFFFF" d="M15.562,15.216c0,0.362-0.296,0.625-0.625,0.625c-0.361,0-0.625-0.295-0.625-0.625
	c0-0.361,0.296-0.624,0.625-0.624C15.298,14.559,15.562,14.854,15.562,15.216z"/>
<path fill="#FFFFFF" d="M10.695,18.832c0,0.396-0.328,0.691-0.69,0.691c-0.395,0-0.69-0.329-0.69-0.691
	c0-0.394,0.329-0.689,0.69-0.689C10.367,18.143,10.695,18.438,10.695,18.832z"/>
<path fill="#FFFFFF" d="M4.514,18.043c0,0.395-0.329,0.691-0.691,0.691c-0.394,0-0.69-0.33-0.69-0.691c0-0.394,0.329-0.69,0.69-0.69
	C4.186,17.32,4.514,17.649,4.514,18.043z"/>
<path fill="#FFFFFF" d="M-10.084,17.484c0,0.263-0.229,0.493-0.526,0.493c-0.295,0-0.526-0.23-0.526-0.493
	c0-0.296,0.23-0.526,0.526-0.526C-10.313,16.958-10.084,17.188-10.084,17.484z"/>
<path fill="#FFFFFF" d="M14.18,19.622c0,0.296-0.229,0.493-0.526,0.493c-0.295,0-0.493-0.23-0.493-0.493
	c0-0.296,0.23-0.526,0.493-0.526C13.95,19.128,14.18,19.358,14.18,19.622z"/>
<path fill="#FFFFFF" d="M-1.174,15.348c0,0.296-0.23,0.526-0.526,0.526c-0.296,0-0.493-0.23-0.493-0.526
	c0-0.263,0.229-0.493,0.493-0.493C-1.404,14.854-1.174,15.085-1.174,15.348z"/>
<path fill="#FFFFFF" d="M8.295,20.279c0,0.822-0.658,1.479-1.479,1.479c-0.822,0-1.48-0.658-1.48-1.479
	c0-0.822,0.658-1.48,1.48-1.48C7.638,18.767,8.295,19.457,8.295,20.279z"/>
<path fill="#FFFFFF" d="M1.653,21.233c0,0.822-0.657,1.479-1.479,1.479c-0.822,0-1.479-0.658-1.479-1.479
	c0-0.822,0.658-1.479,1.479-1.479C0.996,19.753,1.653,20.411,1.653,21.233z"/>
<path fill="#FFFFFF" d="M4.35,21.068c0,0.493-0.395,0.92-0.888,0.92s-0.92-0.395-0.92-0.92c0-0.493,0.395-0.92,0.92-0.92
	C3.922,20.148,4.35,20.575,4.35,21.068z"/>
<path fill="#FFFFFF" d="M6.684,45.529c0,0.492-0.394,0.921-0.888,0.921c-0.493,0-0.92-0.396-0.92-0.921
	c0-0.492,0.395-0.92,0.92-0.92C6.29,44.609,6.684,45.004,6.684,45.529z"/>
<path fill="#FFFFFF" d="M8.328,18.537c0,0.493-0.395,0.92-0.888,0.92s-0.92-0.394-0.92-0.92c0-0.493,0.395-0.887,0.92-0.887
	C7.9,17.616,8.328,18.043,8.328,18.537z"/>
<path fill="#FFFFFF" d="M-3.64,24.06c0,0.493-0.395,0.888-0.921,0.888c-0.493,0-0.888-0.395-0.888-0.888s0.395-0.92,0.888-0.92
	C-4.035,23.172-3.64,23.567-3.64,24.06z"/>
<path fill="#FFFFFF" d="M21.709,18.767c0,0.624-0.493,1.117-1.118,1.117s-1.118-0.493-1.118-1.117c0-0.625,0.493-1.118,1.118-1.118
	S21.709,18.143,21.709,18.767z"/>
<path fill="#FFFFFF" d="M-8.506,21.332c0,0.493-0.394,0.888-0.887,0.888s-0.888-0.395-0.888-0.888s0.395-0.888,0.888-0.888
	C-8.9,20.476-8.506,20.871-8.506,21.332z"/>
<path fill="#FFFFFF" d="M4.153,25.145c0,0.756-0.592,1.349-1.349,1.349c-0.756,0-1.348-0.592-1.348-1.349
	c0-0.756,0.592-1.348,1.348-1.348C3.561,23.797,4.153,24.422,4.153,25.145z"/>
<path fill="#FFFFFF" d="M0.272,18.767c0,0.756-0.592,1.348-1.348,1.348c-0.756,0-1.348-0.592-1.348-1.348
	c0-0.756,0.592-1.348,1.348-1.348C-0.319,17.452,0.272,18.043,0.272,18.767z"/>
<path fill="#FFFFFF" d="M-4.396,19.128c0,0.658-0.526,1.183-1.184,1.183c-0.657,0-1.183-0.525-1.183-1.183
	c0-0.658,0.526-1.184,1.183-1.184C-4.922,17.945-4.396,18.471-4.396,19.128z"/>
<path fill="#FFFFFF" d="M-7.157,25.013c0,0.559-0.461,1.02-1.02,1.02s-1.019-0.461-1.019-1.02s0.46-1.019,1.019-1.019
	C-7.585,24.027-7.157,24.454-7.157,25.013z"/>
<path fill="#FFFFFF" d="M8.789,22.383c0,0.757-0.592,1.349-1.349,1.349c-0.756,0-1.348-0.592-1.348-1.349
	c0-0.756,0.592-1.348,1.348-1.348C8.164,21.035,8.789,21.66,8.789,22.383z"/>
<path fill="#FFFFFF" d="M10.662,17.287c0,0.526-0.427,0.953-0.953,0.953c-0.526,0-0.954-0.427-0.954-0.953
	c0-0.526,0.427-0.954,0.954-0.954C10.235,16.333,10.662,16.761,10.662,17.287z"/>
<path fill="#FFFFFF" d="M-1.568,33.562c-0.493,0-0.889-0.394-0.889-0.92c0-0.493,0.396-0.888,0.921-0.888
	c0.493,0,0.887,0.395,0.887,0.921C-0.648,33.168-1.042,33.562-1.568,33.562z"/>
<path fill="#FFFFFF" d="M-2.686,35.665c-0.625,0-1.118-0.525-1.118-1.116c0-0.626,0.526-1.119,1.151-1.119
	c0.625,0,1.118,0.526,1.118,1.152C-1.568,35.173-2.061,35.665-2.686,35.665z"/>
<path fill="#FFFFFF" d="M3.626,23.567c-0.559,0-0.986-0.46-0.986-0.986c0-0.559,0.46-0.986,0.986-0.986
	c0.559,0,0.986,0.46,0.986,0.986C4.613,23.14,4.186,23.567,3.626,23.567z"/>
<path fill="#FFFFFF" d="M-11.235,30.34c-0.493,0-0.887-0.395-0.887-0.92c0-0.493,0.427-0.888,0.92-0.888s0.888,0.395,0.888,0.92
	C-10.313,29.913-10.708,30.34-11.235,30.34z"/>
<path fill="#FFFFFF" d="M-13.93,26.559c-0.362,0-0.69-0.296-0.69-0.69c0-0.362,0.295-0.691,0.69-0.691
	c0.361,0,0.69,0.296,0.69,0.691C-13.24,26.263-13.536,26.559-13.93,26.559z"/>
<path fill="#FFFFFF" d="M-13.602,39.382c-0.361,0-0.691-0.297-0.658-0.69c0-0.362,0.296-0.691,0.69-0.691
	c0.362,0,0.69,0.297,0.69,0.691C-12.911,39.085-13.24,39.382-13.602,39.382z"/>
<path fill="#FFFFFF" d="M-5.185,35.797c-0.493,0-0.888-0.396-0.888-0.92c0-0.492,0.395-0.888,0.921-0.888
	c0.493,0,0.888,0.428,0.888,0.92S-4.659,35.797-5.185,35.797z"/>
<path fill="#FFFFFF" d="M9.511,48.851c-0.395,0-0.69-0.329-0.69-0.691c0-0.394,0.329-0.69,0.69-0.69c0.395,0,0.691,0.33,0.691,0.69
	C10.235,48.554,9.906,48.884,9.511,48.851z"/>
<path fill="#FFFFFF" d="M1.259,32.904c-0.46,0-0.854-0.395-0.854-0.854c0-0.46,0.395-0.855,0.854-0.855
	c0.46,0,0.855,0.395,0.855,0.855C2.114,32.543,1.719,32.904,1.259,32.904z"/>
<path fill="#FFFFFF" d="M-4.001,31.359c-0.493,0-0.888-0.395-0.888-0.92c0-0.493,0.395-0.888,0.92-0.888
	c0.493,0,0.888,0.395,0.888,0.92C-3.113,30.964-3.508,31.359-4.001,31.359z"/>
<path fill="#FFFFFF" d="M1.917,24.619c-0.493,0-0.887-0.427-0.887-0.92c0-0.493,0.395-0.888,0.92-0.888
	c0.493,0,0.887,0.395,0.887,0.92C2.837,24.225,2.41,24.619,1.917,24.619z"/>
<path fill="#FFFFFF" d="M-2.423,24.652c-0.69,0-1.249-0.559-1.249-1.249c0-0.69,0.559-1.25,1.249-1.25c0.69,0,1.25,0.559,1.25,1.25
	C-1.174,24.093-1.733,24.652-2.423,24.652z"/>
<path fill="#FFFFFF" d="M0.01,33.562c-0.396,0-0.691-0.328-0.691-0.69c0-0.394,0.329-0.69,0.691-0.69
	c0.394,0,0.689,0.329,0.689,0.69C0.7,33.267,0.404,33.562,0.01,33.562z"/>
<path fill="#FFFFFF" d="M0.832,31.885c-0.625,0-1.118-0.526-1.118-1.151c0-0.624,0.526-1.117,1.151-1.117
	c0.625,0,1.118,0.526,1.118,1.15C1.95,31.392,1.457,31.885,0.832,31.885z"/>
<path fill="#FFFFFF" d="M-1.535,31.72c-0.757,0-1.349-0.624-1.349-1.348c0-0.756,0.592-1.348,1.349-1.348
	c0.756,0,1.348,0.624,1.348,1.348C-0.188,31.129-0.812,31.72-1.535,31.72z"/>
<path fill="#FFFFFF" d="M1.785,36.752c-0.526,0-0.954-0.428-0.954-0.955c0-0.525,0.427-0.953,0.954-0.953
	c0.526,0,0.953,0.428,0.953,0.953C2.738,36.324,2.311,36.752,1.785,36.752z"/>
<path fill="#FFFFFF" d="M14.443,15.38c0,0.625-0.493,1.118-1.118,1.118c-0.625,0-1.118-0.493-1.118-1.118s0.493-1.118,1.118-1.118
	C13.917,14.262,14.443,14.755,14.443,15.38z"/>
<path fill="#FFFFFF" d="M20.098,19.721c0,0.755-0.592,1.348-1.348,1.348c-0.756,0-1.349-0.592-1.349-1.348
	c0-0.724,0.592-1.349,1.349-1.349C19.506,18.372,20.098,18.964,20.098,19.721z"/>
<path fill="#FFFFFF" d="M22.334,20.279c0,0.756-0.592,1.348-1.348,1.348c-0.756,0-1.348-0.592-1.348-1.348
	c0-0.756,0.592-1.348,1.348-1.348C21.742,18.964,22.334,19.556,22.334,20.279z"/>
<circle fill="#FFFFFF" cx="19.539" cy="17.781" r="0.888"/>
<path fill="#FFFFFF" d="M18.225,18.273c0,0.428-0.33,0.756-0.757,0.756s-0.756-0.329-0.756-0.756c0-0.427,0.329-0.756,0.756-0.756
	S18.225,17.846,18.225,18.273z"/>
<path fill="#FFFFFF" d="M12.799,18.504c0,0.526-0.427,0.986-0.986,0.986c-0.526,0-0.986-0.427-0.986-0.986
	c0-0.526,0.427-0.986,0.986-0.986S12.799,17.978,12.799,18.504z"/>
<path fill="#FFFFFF" d="M4.514,15.611c0,0.526-0.427,0.986-0.986,0.986c-0.526,0-0.986-0.428-0.986-0.986
	c0-0.526,0.427-0.986,0.986-0.986C4.087,14.657,4.514,15.085,4.514,15.611z"/>
<path fill="#FFFFFF" d="M0.799,17.057c0,0.395-0.329,0.723-0.723,0.723c-0.395,0-0.724-0.329-0.724-0.723
	c0-0.394,0.329-0.724,0.724-0.724C0.47,16.333,0.799,16.663,0.799,17.057z"/>
<path fill="#FFFFFF" d="M23.978,42.406c0-0.921-0.756-1.677-1.676-1.677c-0.921,0-1.677,0.756-1.677,1.677
	c0,0.92,0.755,1.676,1.677,1.676C23.222,44.082,23.978,43.326,23.978,42.406z"/>
<path fill="#FFFFFF" d="M12.964,42.241c0-0.953-0.756-1.709-1.71-1.709c-0.953,0-1.71,0.756-1.71,1.709s0.757,1.709,1.71,1.709
	C12.174,43.983,12.964,43.194,12.964,42.241z"/>
<path fill="#FFFFFF" d="M-4.889,28.696c0-0.657-0.526-1.216-1.217-1.216c-0.657,0-1.216,0.526-1.216,1.216
	c0,0.658,0.526,1.217,1.216,1.217C-5.415,29.913-4.889,29.386-4.889,28.696z"/>
<path fill="#FFFFFF" d="M8.624,47.766c0-0.789-0.658-1.447-1.446-1.447c-0.79,0-1.446,0.658-1.446,1.447
	c0,0.788,0.657,1.447,1.446,1.447C7.966,49.213,8.624,48.554,8.624,47.766z"/>
<path fill="#FFFFFF" d="M20.625,39.775c0-0.985-0.822-1.809-1.809-1.809c-0.986,0-1.808,0.823-1.808,1.809
	c0,0.987,0.822,1.809,1.808,1.809C19.835,41.584,20.625,40.763,20.625,39.775z"/>
<path fill="#FFFFFF" d="M20.625,41.847c0-0.493-0.395-0.919-0.92-0.919c-0.493,0-0.889,0.394-0.889,0.919
	c0,0.493,0.396,0.922,0.889,0.922C20.23,42.769,20.625,42.34,20.625,41.847z"/>
<path fill="#FFFFFF" d="M24.142,42.011c0-0.492-0.395-0.92-0.888-0.92s-0.92,0.395-0.92,0.92c0,0.494,0.395,0.922,0.92,0.922
	C23.748,42.933,24.142,42.538,24.142,42.011z"/>
<path fill="#FFFFFF" d="M-4.396,41.648c0-0.622-0.493-1.116-1.118-1.116c-0.624,0-1.118,0.494-1.118,1.116
	c0,0.626,0.494,1.12,1.118,1.12C-4.889,42.801-4.396,42.274-4.396,41.648z"/>
<path fill="#FFFFFF" d="M-1.207,43.359c0-0.492-0.395-0.92-0.92-0.92c-0.493,0-0.888,0.395-0.888,0.92
	c0,0.492,0.395,0.888,0.888,0.888S-1.207,43.852-1.207,43.359z"/>
<path fill="#FFFFFF" d="M5.369,39.973c0-0.559-0.46-1.018-1.019-1.018c-0.559,0-1.02,0.459-1.02,1.018c0,0.56,0.46,1.021,1.02,1.021
	C4.941,40.993,5.369,40.532,5.369,39.973z"/>
<path fill="#FFFFFF" d="M1.325,39.02c0-0.492-0.394-0.888-0.887-0.888s-0.92,0.396-0.92,0.888c0,0.493,0.394,0.92,0.92,0.92
	C0.897,39.906,1.325,39.513,1.325,39.02z"/>
<path fill="#FFFFFF" d="M-8.374,44.214c0-0.494-0.394-0.92-0.92-0.92c-0.493,0-0.888,0.394-0.888,0.92
	c0,0.494,0.395,0.89,0.888,0.89S-8.374,44.708-8.374,44.214z"/>
<path fill="#FFFFFF" d="M-6.96,39.513c0-0.493-0.395-0.92-0.92-0.92c-0.493,0-0.887,0.394-0.887,0.92
	c0,0.493,0.394,0.921,0.887,0.921C-7.355,40.434-6.96,40.038-6.96,39.513z"/>
<path fill="#FFFFFF" d="M18.52,37.77c0-0.492-0.395-0.919-0.92-0.919c-0.493,0-0.888,0.394-0.888,0.919
	c0,0.527,0.395,0.889,0.888,0.889C18.125,38.658,18.52,38.264,18.52,37.77z"/>
<circle fill="#FFFFFF" cx="14.377" cy="42.274" r="0.92"/>
<path fill="#FFFFFF" d="M1.424,47.601c0-0.492-0.395-0.92-0.92-0.92c-0.493,0-0.889,0.395-0.889,0.92
	c0,0.492,0.396,0.921,0.889,0.921C1.029,48.488,1.424,48.093,1.424,47.601z"/>
<path fill="#FFFFFF" d="M16.646,46.977c0-0.461-0.362-0.823-0.823-0.823c-0.46,0-0.821,0.362-0.821,0.823
	c0,0.46,0.361,0.822,0.821,0.822C16.251,47.799,16.646,47.437,16.646,46.977z"/>
<circle fill="#FFFFFF" cx="13.95" cy="46.286" r="0.822"/>
<path fill="#FFFFFF" d="M22.137,40.532c0-0.494-0.395-0.922-0.92-0.922c-0.493,0-0.92,0.396-0.92,0.922
	c0,0.494,0.394,0.921,0.92,0.921C21.742,41.42,22.137,41.026,22.137,40.532z"/>
<path fill="#FFFFFF" d="M1.062,37.08c0-0.361-0.296-0.624-0.625-0.624c-0.33,0-0.625,0.296-0.625,0.624
	c0,0.361,0.295,0.624,0.625,0.624C0.766,37.704,1.062,37.441,1.062,37.08z"/>
<circle fill="#FFFFFF" cx="17.106" cy="47.929" r="0.526"/>
<path fill="#FFFFFF" d="M15.627,40.236c0.098-0.362-0.099-0.756-0.461-0.854c-0.361-0.1-0.723,0.099-0.854,0.459
	c-0.099,0.362,0.099,0.758,0.46,0.856C15.133,40.796,15.528,40.599,15.627,40.236z"/>
<path fill="#FFFFFF" d="M3.528,42.109c0-0.591-0.493-1.083-1.085-1.083s-1.085,0.492-1.085,1.083c0,0.593,0.493,1.085,1.085,1.085
	S3.528,42.702,3.528,42.109z"/>
<path fill="#FFFFFF" d="M-4.922,45.004c0-0.362-0.296-0.658-0.658-0.658s-0.657,0.296-0.657,0.658c0,0.361,0.295,0.657,0.657,0.657
	S-4.922,45.365-4.922,45.004z"/>
<path fill="#FFFFFF" d="M0.569,23.929c0-0.296-0.23-0.526-0.493-0.526c-0.296,0-0.526,0.23-0.526,0.526
	c0,0.262,0.23,0.525,0.526,0.525C0.338,24.454,0.569,24.225,0.569,23.929z"/>
<path fill="#FFFFFF" d="M10.991,49.345c0-0.362-0.296-0.659-0.657-0.659c-0.362,0-0.658,0.297-0.658,0.659
	c0,0.36,0.295,0.655,0.658,0.655C10.695,50,10.991,49.705,10.991,49.345z"/>
<path fill="#FFFFFF" d="M22.334,44.511c0-0.854-0.69-1.545-1.512-1.545c-0.855,0-1.545,0.69-1.545,1.545s0.689,1.544,1.545,1.544
	C21.644,46.021,22.334,45.332,22.334,44.511z"/>
<path fill="#FFFFFF" d="M17.237,43.688c0-0.623-0.493-1.117-1.117-1.117c-0.625,0-1.118,0.494-1.118,1.117
	c0,0.625,0.493,1.119,1.118,1.119C16.744,44.773,17.237,44.28,17.237,43.688z"/>
<path fill="#FFFFFF" d="M10.202,42.011c0-0.624-0.493-1.116-1.118-1.116s-1.118,0.492-1.118,1.116c0,0.626,0.493,1.118,1.118,1.118
	S10.202,42.637,10.202,42.011z"/>
<path fill="#FFFFFF" d="M8.985,41.813c0-0.723-0.591-1.347-1.348-1.347c-0.757,0-1.348,0.591-1.348,1.347
	c0,0.757,0.591,1.349,1.348,1.349C8.361,43.162,8.985,42.57,8.985,41.813z"/>
<path fill="#FFFFFF" d="M-1.306,37.604c0-0.886-0.723-1.577-1.578-1.577c-0.887,0-1.578,0.725-1.578,1.577
	c0,0.89,0.724,1.579,1.578,1.579C-2.028,39.184-1.306,38.461-1.306,37.604z"/>
<path fill="#FFFFFF" d="M-7.059,35.764c0-0.624-0.493-1.083-1.085-1.083c-0.592,0-1.084,0.492-1.084,1.083
	c0,0.593,0.492,1.087,1.084,1.087C-7.552,36.884-7.059,36.39-7.059,35.764z"/>
<path fill="#FFFFFF" d="M4.087,38.428c0-0.889-0.724-1.577-1.578-1.577c-0.888,0-1.578,0.722-1.578,1.577
	c0,0.888,0.723,1.578,1.578,1.578C3.396,40.006,4.087,39.282,4.087,38.428z"/>
<path fill="#FFFFFF" d="M-5.021,31.557c0-0.691-0.592-1.25-1.282-1.217c-0.69,0.033-1.25,0.592-1.217,1.282
	c0.033,0.69,0.592,1.249,1.283,1.216C-5.547,32.806-5.021,32.247-5.021,31.557z"/>
<path fill="#FFFFFF" d="M8.723,46.12c0-0.524-0.427-0.951-0.954-0.951c-0.526,0-0.953,0.427-0.953,0.951
	c0,0.527,0.427,0.955,0.953,0.955C8.295,47.075,8.723,46.647,8.723,46.12z"/>
<path fill="#FFFFFF" d="M3.66,40.434c0-0.527-0.428-0.953-0.954-0.953c-0.526,0-0.954,0.426-0.954,0.953
	c0,0.526,0.427,0.953,0.954,0.953C3.231,41.387,3.66,40.96,3.66,40.434z"/>
<path fill="#FFFFFF" d="M4.448,48.027c0-0.525-0.427-0.952-0.953-0.952c-0.526,0-0.954,0.427-0.954,0.952
	c0,0.526,0.427,0.955,0.954,0.955C4.021,48.982,4.448,48.554,4.448,48.027z"/>
<path fill="#FFFFFF" d="M14.608,48.291c0-0.624-0.494-1.116-1.118-1.116c-0.625,0-1.118,0.492-1.118,1.116
	c0,0.625,0.493,1.117,1.118,1.117C14.114,49.408,14.608,48.884,14.608,48.291z"/>
<path fill="#FFFFFF" d="M14.838,44.576c0-1.052-0.855-1.906-1.907-1.906c-1.052,0-1.908,0.854-1.908,1.906s0.855,1.906,1.908,1.906
	C14.016,46.482,14.838,45.628,14.838,44.576z"/>
<path fill="#FFFFFF" d="M-2.917,40.302c0.033-0.691-0.526-1.282-1.216-1.315c-0.691-0.031-1.283,0.526-1.316,1.217
	c-0.033,0.691,0.526,1.282,1.217,1.315C-3.542,41.552-2.95,41.026-2.917,40.302z"/>
<path fill="#FFFFFF" d="M20,43.786c0-0.657-0.526-1.149-1.151-1.149c-0.624,0-1.15,0.525-1.15,1.149c0,0.625,0.526,1.152,1.15,1.152
	C19.474,44.938,20,44.411,20,43.786z"/>
<path fill="#FFFFFF" d="M19.934,46.187c0-0.428-0.361-0.789-0.789-0.789s-0.79,0.361-0.79,0.789s0.362,0.79,0.79,0.79
	C19.605,46.977,19.934,46.614,19.934,46.187z"/>
<path fill="#FFFFFF" d="M18.718,45.365c0-0.427-0.33-0.756-0.757-0.756s-0.756,0.329-0.756,0.756c0,0.426,0.329,0.755,0.756,0.755
	C18.355,46.12,18.718,45.791,18.718,45.365z"/>
<path fill="#FFFFFF" d="M-11.563,33.891c0.065,0.329,0.394,0.56,0.724,0.494c0.328-0.066,0.559-0.396,0.493-0.725
	c-0.065-0.33-0.395-0.559-0.724-0.492C-11.398,33.233-11.629,33.562-11.563,33.891z"/>
<path fill="#FFFFFF" d="M-8.736,29.288c0.066,0.263,0.33,0.46,0.592,0.395c0.263-0.033,0.46-0.296,0.395-0.591
	c-0.066-0.264-0.296-0.461-0.592-0.395C-8.604,28.762-8.801,29.025-8.736,29.288z"/>
<path fill="#FFFFFF" d="M18.75,24.225c0,0.493-0.395,0.92-0.888,0.92s-0.888-0.395-0.888-0.92c0-0.493,0.395-0.888,0.888-0.888
	S18.75,23.731,18.75,24.225z"/>
<path fill="#FFFFFF" d="M18.75,25.277c0,0.493-0.395,0.887-0.888,0.887s-0.888-0.394-0.888-0.887s0.395-0.888,0.888-0.888
	S18.75,24.784,18.75,25.277z"/>
<path fill="#FFFFFF" d="M21.052,23.534c0,0.823-0.658,1.479-1.479,1.479c-0.822,0-1.479-0.657-1.479-1.479
	c0-0.821,0.658-1.479,1.479-1.479C20.394,22.021,21.052,22.712,21.052,23.534z"/>
<circle fill="#FFFFFF" cx="16.613" cy="24.323" r="0.888"/>
<path fill="#FFFFFF" d="M16.449,23.994c0,0.493-0.395,0.888-0.92,0.888c-0.493,0-0.888-0.395-0.888-0.888s0.395-0.92,0.888-0.92
	C16.054,23.074,16.449,23.501,16.449,23.994z"/>
<path fill="#FFFFFF" d="M20,21.891c0,0.492-0.395,0.92-0.888,0.92s-0.887-0.395-0.887-0.92c0-0.494,0.394-0.921,0.887-0.921
	C19.605,21.002,20,21.396,20,21.891z"/>
<path fill="#FFFFFF" d="M17.303,45.397c0-0.723-0.592-1.315-1.314-1.315c-0.724,0-1.316,0.593-1.316,1.315s0.592,1.315,1.316,1.315
	C16.711,46.713,17.303,46.12,17.303,45.397z"/>
</svg>
