<?xml version="1.0" encoding="utf-8"?>
<!-- Generator: Adobe Illustrator 16.0.0, SVG Export Plug-In . SVG Version: 6.00 Build 0)  -->
<svg version="1.2" baseProfile="tiny" id="Layer_1" xmlns="http://www.w3.org/2000/svg" xmlns:xlink="http://www.w3.org/1999/xlink"
	 x="0px" y="0px" width="311.812px" height="102.047px" viewBox="0 0 311.812 102.047" xml:space="preserve">
<g>
	<path fill="#C8C9C7" d="M221.628,7.904c0-2.737,1.522-4.259,4.26-4.259h4.355c2.839,0,4.26,1.522,4.26,4.259v26.36
		c0,6.283,1.624,10.543,8.007,10.543c9.331,0,14.498-8.212,14.498-17.438V7.904c0-2.737,1.42-4.259,4.26-4.259h4.361
		c2.738,0,4.254,1.522,4.254,4.259V51.09c0,2.84-1.516,4.26-4.254,4.26h-3.959c-2.736,0-4.157-1.42-4.157-4.26v-3.042
		c0-1.215,0.206-2.331,0.206-2.331h-0.206c-2.429,5.273-9.119,10.847-17.938,10.847c-11.052,0-17.946-5.574-17.946-19.666V7.904z
		 M280.006,7.904c0-2.737,1.42-4.259,4.156-4.259h3.959c2.738,0,4.254,1.522,4.254,4.259v4.868c0,1.925-0.301,3.546-0.301,3.546
		h0.198c2.026-6.185,7.706-13.076,15.003-13.076c2.841,0,3.857,1.417,3.857,4.257v3.955c0,2.738-1.625,4.256-4.361,4.256
		c-9.428,0-13.987,9.328-13.987,18.755V51.09c0,2.84-1.42,4.26-4.157,4.26h-4.465c-2.736,0-4.156-1.42-4.156-4.26V7.904z"/>
	<path fill="#C8C9C7" d="M228.837,45.513c14.696,0,22.908,10.44,22.908,24.635c0,2.229-1.925,4.359-4.457,4.359h-31.53
		c0.812,9.328,7.7,14.195,15.509,14.195c4.765,0,8.717-1.826,11.153-3.348c2.533-1.215,4.355-0.912,5.673,1.42l1.223,2.027
		c1.215,2.331,0.805,4.359-1.421,5.68c-3.344,2.126-9.433,5.167-17.543,5.167c-17.134,0-27.775-12.366-27.775-27.065
		C202.576,56.664,213.321,45.513,228.837,45.513z M238.974,66.701c-0.205-7.198-4.566-11.458-10.444-11.458
		c-6.587,0-11.256,4.563-12.472,11.458H238.974z M256.291,88.6l1.215-1.826c1.523-2.13,3.25-2.332,5.782-1.014
		c2.431,1.317,6.286,3.549,11.557,3.549c4.458,0,7.194-2.027,7.194-5.273c0-8.413-25.646-5.27-25.646-23.011
		c0-10.141,8.922-15.512,19.769-15.512c6.895,0,11.659,2.228,14.396,3.751c2.335,1.215,2.636,3.345,1.522,5.676l-1.017,1.826
		c-1.215,2.434-3.141,2.737-5.673,1.622c-2.232-1.014-5.576-2.533-9.837-2.533c-4.464,0-6.997,1.823-6.997,5.069
		c0,8.515,25.653,5.17,25.653,22.809c0,9.123-7.706,15.916-19.673,15.916c-8.309,0-14.09-3.14-17.23-5.27
		C254.974,93.061,254.77,90.829,256.291,88.6z"/>
	<path fill="#EC008C" d="M215.341,29.42c0,15.683-12.71,28.396-28.396,28.396c-15.68,0-28.396-12.714-28.396-28.396
		c0-15.684,12.717-28.397,28.396-28.397C202.631,1.023,215.341,13.737,215.341,29.42z"/>
	<path fill="#00B6ED" d="M198.727,72.626c0,15.684-12.71,28.397-28.396,28.397c-15.68,0-28.397-12.713-28.397-28.397
		c0-15.682,12.718-28.396,28.397-28.396C186.017,44.229,198.727,56.944,198.727,72.626z"/>
	<path fill="#2E008B" d="M163.306,45.141c5.089,7.639,13.775,12.676,23.639,12.676c2.43,0,4.774-0.337,7.027-0.911
		c-5.089-7.638-13.771-12.676-23.642-12.676C167.899,44.229,165.555,44.567,163.306,45.141z"/>
	<path fill="#C8C9C7" d="M0.679,30.71c0-2.737,1.522-4.256,4.26-4.256h4.354c2.841,0,4.26,1.519,4.26,4.256v20.884
		c0,2.536-0.307,4.359-0.307,4.359h0.205c2.532-4.966,9.023-10.44,17.945-10.44c11.455,0,18.042,5.979,18.042,19.666v28.994
		c0,2.84-1.516,4.26-4.253,4.26h-4.362c-2.84,0-4.259-1.42-4.259-4.26V67.817c0-6.287-1.618-10.543-8.109-10.543
		c-9.024,0-14.902,7.297-14.902,17.13v19.769c0,2.84-1.419,4.26-4.26,4.26H4.938c-2.737,0-4.26-1.42-4.26-4.26V30.71z"/>
	<path fill="#C8C9C7" d="M81.972,45.513c14.696,0,22.908,10.44,22.908,24.635c0,2.229-1.925,4.359-4.457,4.359h-31.53
		c0.812,9.328,7.707,14.195,15.51,14.195c4.764,0,8.717-1.826,11.153-3.348c2.533-1.215,4.355-0.912,5.673,1.42l1.222,2.027
		c1.215,2.331,0.812,4.359-1.42,5.68c-3.345,2.126-9.427,5.167-17.543,5.167c-17.127,0-27.775-12.366-27.775-27.065
		C55.712,56.664,66.456,45.513,81.972,45.513z M92.108,66.701c-0.204-7.198-4.56-11.458-10.443-11.458
		c-6.588,0-11.25,4.563-12.472,11.458H92.108z"/>
	<path fill="#C8C9C7" d="M111.658,50.988c0-2.738,1.42-4.26,4.157-4.26h3.96c2.736,0,4.252,1.521,4.252,4.26v4.867
		c0,1.925-0.301,3.546-0.301,3.546h0.198c2.027-6.185,7.707-13.076,15.004-13.076c2.84,0,3.856,1.416,3.856,4.256v3.956
		c0,2.737-1.624,4.256-4.361,4.256c-9.427,0-13.986,9.328-13.986,18.755v16.625c0,2.84-1.42,4.26-4.157,4.26h-4.465
		c-2.737,0-4.157-1.42-4.157-4.26V50.988z"/>
	<g>
		<path fill="#BBBDBF" d="M284.162,55.35h4.465c2.321,0,3.632-1.083,3.996-3.124c-0.096-1.198-0.692-2.249-2.064-2.962
			c-2.19-1.219-5.707-2.874-10.553-3.492v5.318C280.006,53.93,281.426,55.35,284.162,55.35z"/>
		<path fill="#BBBDBF" d="M258.275,53.796c0.675,0.993,1.773,1.553,3.395,1.553h3.959c2.738,0,4.254-1.42,4.254-4.26v-4.912
			C264.756,47.305,260.562,49.875,258.275,53.796z"/>
		<path fill="#BBBDBF" d="M228.837,45.513c-2.055,0-4.018,0.208-5.892,0.583c2.495,7.375,8.41,10.468,16.629,10.468
			c2.946,0,5.622-0.658,8.014-1.683C243.772,49.09,237.421,45.513,228.837,45.513z"/>
	</g>
</g>
</svg>
