<?xml version="1.0" encoding="utf-8"?>
<!-- Generator: Adobe Illustrator 16.0.0, SVG Export Plug-In . SVG Version: 6.00 Build 0)  -->
<svg version="1.2" baseProfile="tiny" id="Layer_1" xmlns="http://www.w3.org/2000/svg" xmlns:xlink="http://www.w3.org/1999/xlink"
	 x="0px" y="0px" width="702.993px" height="272.126px" viewBox="0 0 702.993 272.126" xml:space="preserve">
<g>
	<g>
		<path fill="#C8C9C7" d="M499.508,16.283c0-6.163,3.428-9.591,9.593-9.591h9.809c6.394,0,9.593,3.428,9.593,9.591v59.365
			c0,14.15,3.657,23.744,18.032,23.744c21.015,0,32.651-18.494,32.651-39.271V16.283c0-6.163,3.198-9.591,9.593-9.591h9.823
			c6.164,0,9.578,3.428,9.578,9.591v97.259c0,6.395-3.414,9.593-9.578,9.593h-8.917c-6.163,0-9.361-3.198-9.361-9.593v-6.85
			c0-2.736,0.462-5.25,0.462-5.25h-0.462c-5.472,11.876-20.538,24.428-40.399,24.428c-24.891,0-40.416-12.552-40.416-44.29V16.283z
			 M630.979,16.283c0-6.163,3.197-9.591,9.361-9.591h8.916c6.164,0,9.578,3.428,9.578,9.591v10.963c0,4.334-0.678,7.986-0.678,7.986
			h0.447c4.564-13.928,17.355-29.448,33.788-29.448c6.396,0,8.687,3.191,8.687,9.586v8.908c0,6.165-3.659,9.586-9.823,9.586
			c-21.231,0-31.499,21.007-31.499,42.237v37.441c0,6.395-3.197,9.593-9.361,9.593H640.34c-6.164,0-9.361-3.198-9.361-9.593V16.283z
			"/>
		<path fill="#C8C9C7" d="M515.742,100.982c33.098,0,51.593,23.513,51.593,55.48c0,5.02-4.336,9.816-10.038,9.816h-71.01
			c1.83,21.008,17.342,31.969,34.928,31.969c10.731,0,19.632-4.112,25.119-7.54c5.704-2.736,9.809-2.053,12.775,3.198l2.752,4.564
			c2.737,5.25,1.813,9.816-3.198,12.791c-7.532,4.788-21.244,11.638-39.508,11.638c-38.587,0-62.553-27.849-62.553-60.954
			C456.602,126.094,480.8,100.982,515.742,100.982z M538.571,148.7c-0.461-16.211-10.284-25.804-23.521-25.804
			c-14.834,0-25.351,10.278-28.087,25.804H538.571z M577.572,198.017l2.736-4.111c3.43-4.797,7.318-5.251,13.021-2.283
			c5.474,2.966,14.157,7.993,26.026,7.993c10.039,0,16.203-4.565,16.203-11.876c0-18.947-57.757-11.868-57.757-51.822
			c0-22.837,20.094-34.935,44.521-34.935c15.527,0,26.258,5.018,32.42,8.448c5.26,2.736,5.938,7.533,3.432,12.782l-2.291,4.112
			c-2.736,5.48-7.072,6.165-12.775,3.651c-5.027-2.283-12.559-5.704-22.152-5.704c-10.055,0-15.76,4.106-15.76,11.416
			c0,19.177,57.773,11.645,57.773,51.369c0,20.545-17.355,35.843-44.305,35.843c-18.71,0-31.73-7.072-38.803-11.868
			C574.605,208.062,574.145,203.036,577.572,198.017z"/>
		<path fill="#EC008C" d="M485.349,64.741c0,35.318-28.625,63.951-63.951,63.951c-35.312,0-63.952-28.633-63.952-63.951
			c0-35.321,28.64-63.953,63.952-63.953C456.724,0.788,485.349,29.42,485.349,64.741z"/>
		<path fill="#00B6ED" d="M447.931,162.043c0,35.321-28.624,63.953-63.951,63.953c-35.312,0-63.953-28.632-63.953-63.953
			c0-35.318,28.641-63.951,63.953-63.951C419.307,98.092,447.931,126.725,447.931,162.043z"/>
		<path fill="#2E008B" d="M368.162,100.143c11.46,17.203,31.022,28.549,53.236,28.549c5.472,0,10.752-0.76,15.825-2.053
			c-11.46-17.202-31.014-28.547-53.243-28.547C378.506,98.092,373.226,98.853,368.162,100.143z"/>
		<path fill="#C8C9C7" d="M1.914,67.646c0-6.165,3.429-9.585,9.594-9.585h9.807c6.396,0,9.593,3.421,9.593,9.585v47.032
			c0,5.712-0.69,9.817-0.69,9.817h0.461c5.702-11.184,20.322-23.513,40.416-23.513c25.796,0,40.632,13.466,40.632,44.289v65.297
			c0,6.396-3.414,9.594-9.579,9.594h-9.823c-6.396,0-9.593-3.198-9.593-9.594v-59.355c0-14.158-3.643-23.743-18.262-23.743
			c-20.324,0-33.562,16.434-33.562,38.578v44.521c0,6.396-3.196,9.594-9.593,9.594h-9.807c-6.165,0-9.594-3.198-9.594-9.594V67.646z
			"/>
		<path fill="#C8C9C7" d="M184.992,100.982c33.098,0,51.591,23.513,51.591,55.48c0,5.02-4.334,9.816-10.037,9.816h-71.008
			c1.829,21.008,17.355,31.969,34.927,31.969c10.729,0,19.632-4.112,25.118-7.54c5.705-2.736,9.81-2.053,12.775,3.198l2.753,4.564
			c2.735,5.25,1.828,9.816-3.198,12.791c-7.533,4.788-21.229,11.638-39.508,11.638c-38.57,0-62.553-27.849-62.553-60.954
			C125.852,126.094,150.048,100.982,184.992,100.982z M207.82,148.7c-0.46-16.211-10.269-25.804-23.52-25.804
			c-14.836,0-25.335,10.278-28.087,25.804H207.82z"/>
		<path fill="#C8C9C7" d="M251.848,113.312c0-6.166,3.198-9.593,9.362-9.593h8.917c6.163,0,9.577,3.427,9.577,9.593v10.96
			c0,4.336-0.678,7.987-0.678,7.987h0.446c4.566-13.929,17.355-29.448,33.791-29.448c6.395,0,8.685,3.189,8.685,9.586v8.908
			c0,6.165-3.658,9.586-9.822,9.586c-21.23,0-31.499,21.007-31.499,42.237v37.44c0,6.396-3.197,9.594-9.363,9.594H261.21
			c-6.164,0-9.362-3.198-9.362-9.594V113.312z"/>
		<g>
			<path fill="#BBBDBF" d="M640.34,123.135h10.055c5.227,0,8.178-2.438,9-7.034c-0.217-2.697-1.561-5.064-4.652-6.67
				c-4.932-2.745-12.85-6.472-23.764-7.865v11.977C630.979,119.937,634.176,123.135,640.34,123.135z"/>
			<path fill="#BBBDBF" d="M582.04,119.637c1.521,2.236,3.994,3.498,7.646,3.498h8.917c6.164,0,9.578-3.198,9.578-9.593V102.48
				C596.635,105.017,587.188,110.806,582.04,119.637z"/>
			<path fill="#BBBDBF" d="M515.742,100.982c-4.627,0-9.048,0.469-13.268,1.314c5.62,16.61,18.941,23.574,37.45,23.574
				c6.634,0,12.66-1.483,18.048-3.79C549.378,109.037,535.074,100.982,515.742,100.982z"/>
		</g>
	</g>
	<g>
		<path fill="#EC008C" d="M16.099,249.509H5.45v9.878h11.869v2.967H1.914v-27.395h14.796v2.967H5.45v8.658h10.649V249.509z"/>
		<path fill="#EC008C" d="M23.255,242.681l2.805,4.228c0.731,1.098,1.341,2.114,1.991,3.211h0.122
			c0.65-1.18,1.301-2.194,1.951-3.251l2.764-4.188h3.862l-6.707,9.512l6.909,10.161h-4.064l-2.886-4.43
			c-0.771-1.139-1.423-2.236-2.113-3.415h-0.082c-0.65,1.179-1.341,2.235-2.072,3.415l-2.846,4.43h-3.942l6.991-10.038l-6.666-9.635
			H23.255z"/>
		<path fill="#EC008C" d="M45.044,237.031v5.649h5.121v2.725h-5.121v10.607c0,2.439,0.69,3.822,2.682,3.822
			c0.936,0,1.627-0.123,2.074-0.244l0.162,2.682c-0.691,0.285-1.789,0.488-3.17,0.488c-1.667,0-3.009-0.528-3.862-1.504
			c-1.017-1.058-1.382-2.805-1.382-5.121v-10.73H38.5v-2.725h3.049v-4.715L45.044,237.031z"/>
		<path fill="#EC008C" d="M53.987,248.819c0-2.317-0.04-4.309-0.162-6.139h3.13l0.121,3.862h0.163
			c0.895-2.643,3.049-4.309,5.447-4.309c0.406,0,0.691,0.039,1.016,0.122v3.374c-0.365-0.081-0.731-0.123-1.219-0.123
			c-2.521,0-4.309,1.91-4.797,4.594c-0.082,0.487-0.163,1.057-0.163,1.666v10.486h-3.536V248.819z"/>
		<path fill="#EC008C" d="M77.767,262.354l-0.284-2.479h-0.122c-1.097,1.544-3.211,2.926-6.016,2.926
			c-3.983,0-6.016-2.804-6.016-5.649c0-4.757,4.228-7.357,11.828-7.317v-0.405c0-1.626-0.447-4.554-4.471-4.554
			c-1.829,0-3.74,0.57-5.122,1.464l-0.812-2.356c1.626-1.058,3.983-1.748,6.463-1.748c6.016,0,7.479,4.104,7.479,8.048v7.356
			c0,1.707,0.081,3.375,0.325,4.715H77.767z M77.239,252.315c-3.901-0.083-8.332,0.609-8.332,4.429c0,2.317,1.545,3.416,3.373,3.416
			c2.561,0,4.188-1.627,4.756-3.293c0.122-0.366,0.203-0.772,0.203-1.139V252.315z"/>
		<path fill="#EC008C" d="M104.069,252.355c0,7.274-5.039,10.445-9.795,10.445c-5.325,0-9.431-3.902-9.431-10.121
			c0-6.584,4.309-10.445,9.756-10.445C100.25,242.234,104.069,246.339,104.069,252.355z M88.46,252.558
			c0,4.31,2.479,7.562,5.976,7.562c3.414,0,5.976-3.212,5.976-7.643c0-3.332-1.667-7.56-5.895-7.56
			C90.291,244.917,88.46,248.819,88.46,252.558z"/>
		<path fill="#EC008C" d="M108.38,248.819c0-2.317-0.041-4.309-0.162-6.139h3.129l0.122,3.862h0.163
			c0.895-2.643,3.048-4.309,5.446-4.309c0.406,0,0.69,0.039,1.017,0.122v3.374c-0.366-0.081-0.731-0.123-1.219-0.123
			c-2.521,0-4.31,1.91-4.797,4.594c-0.082,0.487-0.163,1.057-0.163,1.666v10.486h-3.536V248.819z"/>
		<path fill="#EC008C" d="M138.055,233.495v23.779c0,1.747,0.04,3.739,0.162,5.079h-3.211l-0.163-3.413h-0.081
			c-1.097,2.194-3.495,3.86-6.707,3.86c-4.755,0-8.413-4.023-8.413-9.999c-0.041-6.543,4.023-10.567,8.82-10.567
			c3.007,0,5.04,1.422,5.934,3.008h0.082v-11.747H138.055z M134.478,250.688c0-0.447-0.041-1.057-0.163-1.503
			c-0.528-2.277-2.479-4.146-5.161-4.146c-3.699,0-5.895,3.252-5.895,7.601c0,3.983,1.951,7.275,5.812,7.275
			c2.397,0,4.594-1.584,5.243-4.268c0.122-0.487,0.163-0.976,0.163-1.544V250.688z"/>
		<path fill="#EC008C" d="M147.772,237.152c0.041,1.22-0.854,2.196-2.276,2.196c-1.26,0-2.154-0.977-2.154-2.196
			c0-1.259,0.936-2.235,2.235-2.235C146.918,234.917,147.772,235.894,147.772,237.152z M143.789,262.354v-19.673h3.577v19.673
			H143.789z"/>
		<path fill="#EC008C" d="M153.097,248.006c0-2.032-0.04-3.699-0.162-5.325h3.171l0.202,3.253h0.082
			c0.976-1.871,3.252-3.699,6.504-3.699c2.723,0,6.95,1.626,6.95,8.374v11.745h-3.577v-11.34c0-3.171-1.179-5.812-4.553-5.812
			c-2.357,0-4.186,1.667-4.796,3.659c-0.163,0.446-0.244,1.056-0.244,1.666v11.827h-3.577V248.006z"/>
		<path fill="#EC008C" d="M186.35,262.354l-0.285-2.479h-0.121c-1.098,1.544-3.212,2.926-6.016,2.926
			c-3.984,0-6.017-2.804-6.017-5.649c0-4.757,4.228-7.357,11.828-7.317v-0.405c0-1.626-0.447-4.554-4.471-4.554
			c-1.829,0-3.739,0.57-5.121,1.464l-0.813-2.356c1.626-1.058,3.983-1.748,6.463-1.748c6.017,0,7.479,4.104,7.479,8.048v7.356
			c0,1.707,0.081,3.375,0.325,4.715H186.35z M185.822,252.315c-3.902-0.083-8.333,0.609-8.333,4.429
			c0,2.317,1.545,3.416,3.374,3.416c2.561,0,4.187-1.627,4.755-3.293c0.122-0.366,0.204-0.772,0.204-1.139V252.315z"/>
		<path fill="#EC008C" d="M194.847,248.819c0-2.317-0.04-4.309-0.162-6.139h3.13l0.121,3.862h0.163
			c0.894-2.643,3.049-4.309,5.446-4.309c0.406,0,0.691,0.039,1.017,0.122v3.374c-0.366-0.081-0.732-0.123-1.22-0.123
			c-2.521,0-4.309,1.91-4.797,4.594c-0.081,0.487-0.162,1.057-0.162,1.666v10.486h-3.536V248.819z"/>
		<path fill="#EC008C" d="M210.253,242.681l4.309,11.626c0.447,1.3,0.935,2.845,1.26,4.024h0.081
			c0.366-1.18,0.772-2.684,1.261-4.105l3.901-11.545h3.78l-5.365,14.024c-2.561,6.747-4.309,10.202-6.748,12.315
			c-1.747,1.545-3.495,2.153-4.39,2.316l-0.894-3.008c0.894-0.285,2.073-0.854,3.13-1.748c0.975-0.772,2.194-2.153,3.008-3.983
			c0.162-0.365,0.284-0.65,0.284-0.854c0-0.202-0.081-0.487-0.244-0.935l-7.275-18.129H210.253z"/>
		<path fill="#EC008C" d="M236.311,249.104c0-2.52-0.081-4.553-0.163-6.423h3.211l0.163,3.373h0.081
			c1.464-2.397,3.78-3.819,6.991-3.819c4.756,0,8.333,4.024,8.333,9.998c0,7.073-4.309,10.568-8.942,10.568
			c-2.602,0-4.878-1.138-6.057-3.089h-0.081v10.69h-3.536V249.104z M239.847,254.347c0,0.529,0.081,1.016,0.163,1.464
			c0.649,2.479,2.804,4.187,5.365,4.187c3.78,0,5.975-3.09,5.975-7.603c0-3.941-2.072-7.314-5.854-7.314
			c-2.438,0-4.714,1.747-5.405,4.429c-0.122,0.448-0.244,0.977-0.244,1.464V254.347z"/>
		<path fill="#EC008C" d="M261.23,253.169c0.08,4.837,3.171,6.828,6.747,6.828c2.561,0,4.105-0.447,5.446-1.017l0.61,2.562
			c-1.26,0.568-3.414,1.219-6.545,1.219c-6.057,0-9.674-3.983-9.674-9.918s3.495-10.608,9.228-10.608
			c6.422,0,8.129,5.649,8.129,9.268c0,0.73-0.081,1.3-0.122,1.667H261.23z M271.716,250.608c0.041-2.277-0.935-5.813-4.959-5.813
			c-3.617,0-5.203,3.333-5.487,5.813H271.716z"/>
		<path fill="#EC008C" d="M297.205,252.355c0,7.274-5.04,10.445-9.796,10.445c-5.325,0-9.43-3.902-9.43-10.121
			c0-6.584,4.309-10.445,9.755-10.445C293.384,242.234,297.205,246.339,297.205,252.355z M281.596,252.558
			c0,4.31,2.479,7.562,5.976,7.562c3.413,0,5.975-3.212,5.975-7.643c0-3.332-1.667-7.56-5.894-7.56
			C283.425,244.917,281.596,248.819,281.596,252.558z"/>
		<path fill="#EC008C" d="M301.515,249.104c0-2.52-0.081-4.553-0.162-6.423h3.211l0.163,3.373h0.081
			c1.464-2.397,3.78-3.819,6.991-3.819c4.756,0,8.333,4.024,8.333,9.998c0,7.073-4.31,10.568-8.942,10.568
			c-2.602,0-4.878-1.138-6.058-3.089h-0.081v10.69h-3.536V249.104z M305.051,254.347c0,0.529,0.081,1.016,0.163,1.464
			c0.65,2.479,2.805,4.187,5.366,4.187c3.78,0,5.975-3.09,5.975-7.603c0-3.941-2.073-7.314-5.854-7.314
			c-2.438,0-4.715,1.747-5.406,4.429c-0.122,0.448-0.244,0.977-0.244,1.464V254.347z"/>
		<path fill="#EC008C" d="M324.443,233.495h3.576v28.858h-3.576V233.495z"/>
		<path fill="#EC008C" d="M335.825,253.169c0.081,4.837,3.171,6.828,6.747,6.828c2.561,0,4.106-0.447,5.446-1.017l0.611,2.562
			c-1.261,0.568-3.416,1.219-6.545,1.219c-6.057,0-9.674-3.983-9.674-9.918s3.495-10.608,9.227-10.608
			c6.422,0,8.13,5.649,8.13,9.268c0,0.73-0.081,1.3-0.122,1.667H335.825z M346.311,250.608c0.041-2.277-0.934-5.813-4.959-5.813
			c-3.617,0-5.202,3.333-5.487,5.813H346.311z"/>
		<path fill="#EC008C" d="M352.655,260.24c0-1.502,1.017-2.561,2.439-2.561s2.398,1.059,2.398,2.561
			c0,1.464-0.936,2.561-2.439,2.561C353.631,262.801,352.655,261.704,352.655,260.24z"/>
		<path fill="#00B6ED" d="M384.444,249.509h-10.65v9.878h11.869v2.967h-15.404v-27.395h14.795v2.967h-11.26v8.658h10.65V249.509z"/>
		<path fill="#00B6ED" d="M391.598,242.681l2.807,4.228c0.73,1.098,1.342,2.114,1.99,3.211h0.123c0.65-1.18,1.301-2.194,1.951-3.251
			l2.764-4.188h3.861l-6.707,9.512l6.91,10.161h-4.064l-2.887-4.43c-0.771-1.139-1.422-2.236-2.113-3.415h-0.082
			c-0.648,1.179-1.34,2.235-2.072,3.415l-2.846,4.43h-3.941l6.99-10.038l-6.666-9.635H391.598z"/>
		<path fill="#00B6ED" d="M413.387,237.031v5.649h5.123v2.725h-5.123v10.607c0,2.439,0.691,3.822,2.684,3.822
			c0.936,0,1.625-0.123,2.072-0.244l0.162,2.682c-0.689,0.285-1.787,0.488-3.17,0.488c-1.666,0-3.006-0.528-3.861-1.504
			c-1.016-1.058-1.383-2.805-1.383-5.121v-10.73h-3.049v-2.725h3.049v-4.715L413.387,237.031z"/>
		<path fill="#00B6ED" d="M422.333,248.819c0-2.317-0.041-4.309-0.164-6.139h3.131l0.121,3.862h0.162
			c0.895-2.643,3.049-4.309,5.447-4.309c0.406,0,0.691,0.039,1.018,0.122v3.374c-0.367-0.081-0.732-0.123-1.221-0.123
			c-2.52,0-4.309,1.91-4.797,4.594c-0.08,0.487-0.16,1.057-0.16,1.666v10.486h-3.537V248.819z"/>
		<path fill="#00B6ED" d="M446.112,262.354l-0.285-2.479h-0.123c-1.096,1.544-3.209,2.926-6.016,2.926
			c-3.982,0-6.014-2.804-6.014-5.649c0-4.757,4.227-7.357,11.828-7.317v-0.405c0-1.626-0.447-4.554-4.471-4.554
			c-1.83,0-3.74,0.57-5.123,1.464l-0.812-2.356c1.627-1.058,3.982-1.748,6.463-1.748c6.016,0,7.48,4.104,7.48,8.048v7.356
			c0,1.707,0.08,3.375,0.324,4.715H446.112z M445.584,252.315c-3.902-0.083-8.334,0.609-8.334,4.429
			c0,2.317,1.545,3.416,3.375,3.416c2.561,0,4.188-1.627,4.756-3.293c0.121-0.366,0.203-0.772,0.203-1.139V252.315z"/>
		<path fill="#00B6ED" d="M472.413,252.355c0,7.274-5.041,10.445-9.797,10.445c-5.326,0-9.43-3.902-9.43-10.121
			c0-6.584,4.309-10.445,9.756-10.445C468.59,242.234,472.413,246.339,472.413,252.355z M456.803,252.558
			c0,4.31,2.48,7.562,5.975,7.562c3.414,0,5.977-3.212,5.977-7.643c0-3.332-1.668-7.56-5.895-7.56S456.803,248.819,456.803,252.558z
			"/>
		<path fill="#00B6ED" d="M476.723,248.819c0-2.317-0.041-4.309-0.164-6.139h3.131l0.123,3.862h0.162
			c0.895-2.643,3.049-4.309,5.447-4.309c0.406,0,0.689,0.039,1.016,0.122v3.374c-0.367-0.081-0.73-0.123-1.219-0.123
			c-2.521,0-4.311,1.91-4.797,4.594c-0.082,0.487-0.164,1.057-0.164,1.666v10.486h-3.535V248.819z"/>
		<path fill="#00B6ED" d="M506.397,233.495v23.779c0,1.747,0.041,3.739,0.162,5.079h-3.211l-0.162-3.413h-0.082
			c-1.096,2.194-3.496,3.86-6.705,3.86c-4.756,0-8.414-4.023-8.414-9.999c-0.041-6.543,4.023-10.567,8.82-10.567
			c3.008,0,5.041,1.422,5.936,3.008h0.08v-11.747H506.397z M502.821,250.688c0-0.447-0.041-1.057-0.162-1.503
			c-0.529-2.277-2.48-4.146-5.162-4.146c-3.699,0-5.895,3.252-5.895,7.601c0,3.983,1.951,7.275,5.812,7.275
			c2.398,0,4.594-1.584,5.244-4.268c0.121-0.487,0.162-0.976,0.162-1.544V250.688z"/>
		<path fill="#00B6ED" d="M516.114,237.152c0.041,1.22-0.854,2.196-2.275,2.196c-1.262,0-2.156-0.977-2.156-2.196
			c0-1.259,0.938-2.235,2.236-2.235C515.26,234.917,516.114,235.894,516.114,237.152z M512.131,262.354v-19.673h3.576v19.673
			H512.131z"/>
		<path fill="#00B6ED" d="M521.44,248.006c0-2.032-0.041-3.699-0.162-5.325h3.17l0.205,3.253h0.08
			c0.977-1.871,3.252-3.699,6.504-3.699c2.723,0,6.949,1.626,6.949,8.374v11.745h-3.576v-11.34c0-3.171-1.18-5.812-4.553-5.812
			c-2.357,0-4.186,1.667-4.795,3.659c-0.164,0.446-0.246,1.056-0.246,1.666v11.827h-3.576V248.006z"/>
		<path fill="#00B6ED" d="M554.692,262.354l-0.285-2.479h-0.121c-1.098,1.544-3.211,2.926-6.016,2.926
			c-3.984,0-6.016-2.804-6.016-5.649c0-4.757,4.227-7.357,11.828-7.317v-0.405c0-1.626-0.447-4.554-4.471-4.554
			c-1.83,0-3.74,0.57-5.123,1.464l-0.812-2.356c1.627-1.058,3.982-1.748,6.463-1.748c6.018,0,7.479,4.104,7.479,8.048v7.356
			c0,1.707,0.082,3.375,0.326,4.715H554.692z M554.163,252.315c-3.9-0.083-8.332,0.609-8.332,4.429c0,2.317,1.545,3.416,3.375,3.416
			c2.561,0,4.186-1.627,4.756-3.293c0.121-0.366,0.201-0.772,0.201-1.139V252.315z"/>
		<path fill="#00B6ED" d="M563.188,248.819c0-2.317-0.041-4.309-0.162-6.139h3.129l0.123,3.862h0.162
			c0.895-2.643,3.049-4.309,5.447-4.309c0.406,0,0.691,0.039,1.016,0.122v3.374c-0.367-0.081-0.73-0.123-1.219-0.123
			c-2.521,0-4.309,1.91-4.797,4.594c-0.082,0.487-0.162,1.057-0.162,1.666v10.486h-3.537V248.819z"/>
		<path fill="#00B6ED" d="M578.594,242.681l4.309,11.626c0.447,1.3,0.936,2.845,1.262,4.024h0.08c0.365-1.18,0.771-2.684,1.26-4.105
			l3.902-11.545h3.779l-5.365,14.024c-2.561,6.747-4.309,10.202-6.746,12.315c-1.748,1.545-3.496,2.153-4.391,2.316l-0.895-3.008
			c0.895-0.285,2.074-0.854,3.131-1.748c0.975-0.772,2.195-2.153,3.008-3.983c0.162-0.365,0.285-0.65,0.285-0.854
			c0-0.202-0.082-0.487-0.244-0.935l-7.275-18.129H578.594z"/>
		<path fill="#00B6ED" d="M606.645,253.169c0.08,4.837,3.17,6.828,6.746,6.828c2.562,0,4.105-0.447,5.447-1.017l0.609,2.562
			c-1.26,0.568-3.414,1.219-6.545,1.219c-6.057,0-9.674-3.983-9.674-9.918s3.496-10.608,9.229-10.608
			c6.422,0,8.129,5.649,8.129,9.268c0,0.73-0.082,1.3-0.121,1.667H606.645z M617.131,250.608c0.041-2.277-0.936-5.813-4.959-5.813
			c-3.619,0-5.203,3.333-5.488,5.813H617.131z"/>
		<path fill="#00B6ED" d="M636.969,262.354v-16.948h-8.252v16.948h-3.535v-16.948h-2.764v-2.725h2.764v-0.649
			c0-2.765,0.65-5.163,2.195-6.707c1.139-1.139,2.764-1.829,4.959-1.829c1.139,0,2.195,0.365,2.805,0.69l-0.732,2.642
			c-0.527-0.244-1.299-0.487-2.113-0.487c-2.803,0-3.578,2.399-3.578,5.487v0.854h8.252v-0.935c0-2.764,0.65-5.283,2.318-6.869
			c1.34-1.3,3.129-1.83,4.754-1.83c1.303,0,2.359,0.285,3.049,0.569l-0.447,2.765c-0.568-0.243-1.258-0.447-2.316-0.447
			c-3.008,0-3.82,2.683-3.82,5.691v1.056h4.756v2.725h-4.715v16.948H636.969z"/>
		<path fill="#00B6ED" d="M665.588,252.355c0,7.274-5.039,10.445-9.795,10.445c-5.326,0-9.43-3.902-9.43-10.121
			c0-6.584,4.309-10.445,9.754-10.445C661.768,242.234,665.588,246.339,665.588,252.355z M649.981,252.558
			c0,4.31,2.48,7.562,5.975,7.562c3.416,0,5.977-3.212,5.977-7.643c0-3.332-1.666-7.56-5.895-7.56
			C651.811,244.917,649.981,248.819,649.981,252.558z"/>
		<path fill="#00B6ED" d="M669.901,248.819c0-2.317-0.041-4.309-0.162-6.139h3.129l0.121,3.862h0.162
			c0.895-2.643,3.051-4.309,5.449-4.309c0.404,0,0.689,0.039,1.016,0.122v3.374c-0.367-0.081-0.73-0.123-1.221-0.123
			c-2.52,0-4.307,1.91-4.795,4.594c-0.082,0.487-0.164,1.057-0.164,1.666v10.486h-3.535V248.819z"/>
		<path fill="#00B6ED" d="M688.274,237.031v5.649h5.121v2.725h-5.121v10.607c0,2.439,0.689,3.822,2.682,3.822
			c0.936,0,1.625-0.123,2.072-0.244l0.164,2.682c-0.691,0.285-1.789,0.488-3.172,0.488c-1.666,0-3.008-0.528-3.861-1.504
			c-1.016-1.058-1.381-2.805-1.381-5.121v-10.73h-3.051v-2.725h3.051v-4.715L688.274,237.031z"/>
		<path fill="#00B6ED" d="M696.243,260.24c0-1.502,1.016-2.561,2.438-2.561c1.424,0,2.398,1.059,2.398,2.561
			c0,1.464-0.934,2.561-2.438,2.561C697.217,262.801,696.243,261.704,696.243,260.24z"/>
	</g>
</g>
</svg>
